<svg width="336" height="216" viewBox="0 0 336 216" fill="none" xmlns="http://www.w3.org/2000/svg">
<path d="M283.445 210.038C303.625 187.812 315.92 158.314 315.92 125.948C315.92 56.7873 259.782 0.721329 190.533 0.721329C121.284 0.721329 65.1465 56.7873 65.1465 125.948C65.1465 158.314 77.4418 187.812 97.6213 210.038H283.445Z" fill="#ECF3FE"/>
<path d="M148.554 210.038C159.679 197.511 166.438 181.029 166.438 162.968C166.438 123.772 134.622 91.9973 95.3762 91.9973C56.1299 91.9973 24.3145 123.772 24.3145 162.968C24.3145 181.029 31.0733 197.511 42.1982 210.038H148.554Z" fill="#ECF3FE"/>
<path d="M166.616 215.697C247.486 215.697 313.043 212.181 313.043 207.844C313.043 203.507 247.486 199.991 166.616 199.991C85.747 199.991 20.1895 203.507 20.1895 207.844C20.1895 212.181 85.747 215.697 166.616 215.697Z" fill="#D7E4F9"/>
<path d="M69.461 192.238C67.0167 187.685 57.6267 176.997 40.0681 173.682C37.1952 173.14 30.8159 171.935 28.5037 173.538C23.9098 176.722 44.4162 189.145 41.7546 190.8C38.9248 192.559 14.776 179.468 10.6753 181.594C8.74905 182.592 27.3296 190.713 26.8173 201.732C26.7015 204.221 25.6513 206.292 24.6489 207.774H74.8055C74.8055 207.774 75.4841 203.458 69.461 192.238Z" fill="#33DA82"/>
<path d="M287.787 170.552H223.192C221.352 170.552 219.855 169.057 219.855 167.219V124.527C219.855 122.69 221.352 121.195 223.192 121.195H257.191C257.618 121.195 258.028 121.064 258.377 120.818L266.246 115.246C266.813 114.844 267.48 114.632 268.175 114.632H287.787C289.627 114.632 291.124 116.127 291.124 117.964V167.219C291.124 169.057 289.627 170.552 287.787 170.552ZM223.192 122.48C222.062 122.48 221.142 123.398 221.142 124.527V167.219C221.142 168.348 222.062 169.267 223.192 169.267H287.787C288.918 169.267 289.837 168.348 289.837 167.219V117.964C289.837 116.835 288.918 115.917 287.787 115.917H268.176C267.748 115.917 267.338 116.047 266.99 116.294L259.121 121.866C258.554 122.267 257.886 122.48 257.191 122.48L223.192 122.48Z" fill="white"/>
<path d="M303.751 159.593C304.25 159.593 304.655 158.947 304.655 158.15V147.07C304.655 146.273 304.25 145.627 303.751 145.627H278.172C277.672 145.627 277.268 146.273 277.268 147.07V158.15C277.268 158.947 277.672 159.593 278.172 159.593H279.352V161.247H278.172C277.672 161.247 277.268 161.893 277.268 162.69V173.77C277.268 174.567 277.672 175.213 278.172 175.213H279.352V177.003H278.172C277.672 177.003 277.268 177.649 277.268 178.446V189.525C277.268 190.323 277.672 190.969 278.172 190.969H279.354C279.353 190.976 279.352 190.982 279.352 190.99V192.895H278.172C277.672 192.895 277.268 193.541 277.268 194.338V205.417C277.268 206.214 277.672 206.86 278.172 206.86H303.751C304.25 206.86 304.655 206.214 304.655 205.417V194.338C304.655 193.541 304.25 192.895 303.751 192.895H302.571V190.99C302.571 190.982 302.569 190.976 302.569 190.969H303.751C304.25 190.969 304.655 190.323 304.655 189.525V178.446C304.655 177.649 304.25 177.003 303.751 177.003H302.571V175.213H303.751C304.25 175.213 304.655 174.567 304.655 173.77V162.69C304.655 161.893 304.25 161.247 303.751 161.247H302.571V159.593H303.751Z" fill="#9BB9DD"/>
<path d="M291.013 162.586H269.436C268.985 162.586 268.615 162.217 268.615 161.767V159.261C268.615 158.811 268.985 158.442 269.436 158.442H291.013C291.464 158.442 291.834 158.811 291.834 159.261V161.766C291.834 162.217 291.464 162.586 291.013 162.586Z" fill="#36588E"/>
<path d="M292.776 159.593H267.674C267.043 159.593 266.531 159.082 266.531 158.451V146.769C266.531 146.138 267.043 145.627 267.674 145.627H292.776C293.407 145.627 293.919 146.138 293.919 146.769V158.451C293.919 159.082 293.407 159.593 292.776 159.593Z" fill="#C4D7F2"/>
<path d="M291.448 157.966H290.476C290.227 157.966 290.025 157.765 290.025 157.517V147.703C290.025 147.455 290.227 147.254 290.476 147.254H291.448C291.696 147.254 291.898 147.455 291.898 147.703V157.517C291.898 157.765 291.696 157.966 291.448 157.966Z" fill="#ECF3FE"/>
<path d="M288.085 157.966H287.112C286.864 157.966 286.662 157.765 286.662 157.517V147.703C286.662 147.455 286.864 147.254 287.112 147.254H288.085C288.333 147.254 288.535 147.455 288.535 147.703V157.517C288.535 157.765 288.333 157.966 288.085 157.966Z" fill="#ECF3FE"/>
<path d="M284.723 157.966H283.751C283.502 157.966 283.301 157.765 283.301 157.517V147.703C283.301 147.455 283.502 147.254 283.751 147.254H284.723C284.972 147.254 285.174 147.455 285.174 147.703V157.517C285.174 157.765 284.972 157.966 284.723 157.966Z" fill="#ECF3FE"/>
<path d="M281.36 157.966H280.388C280.139 157.966 279.938 157.765 279.938 157.517V147.703C279.938 147.455 280.139 147.254 280.388 147.254H281.36C281.609 147.254 281.81 147.455 281.81 147.703V157.517C281.81 157.765 281.609 157.966 281.36 157.966Z" fill="#ECF3FE"/>
<path d="M271.862 148.934H268.393C268.141 148.934 267.936 148.728 267.936 148.477V148.236C267.936 147.985 268.141 147.779 268.393 147.779H271.862C272.114 147.779 272.319 147.985 272.319 148.236V148.477C272.319 148.728 272.114 148.934 271.862 148.934Z" fill="#1DB562"/>
<path d="M291.013 194.098H269.436C268.985 194.098 268.615 193.729 268.615 193.278V190.773C268.615 190.322 268.985 189.953 269.436 189.953H291.013C291.464 189.953 291.834 190.322 291.834 190.773V193.278C291.834 193.729 291.464 194.098 291.013 194.098Z" fill="#36588E"/>
<path d="M291.013 178.206H269.436C268.985 178.206 268.615 177.837 268.615 177.386V174.881C268.615 174.431 268.985 174.062 269.436 174.062H291.013C291.464 174.062 291.834 174.431 291.834 174.881V177.386C291.834 177.837 291.464 178.206 291.013 178.206Z" fill="#36588E"/>
<path d="M292.776 175.213H267.674C267.043 175.213 266.531 174.702 266.531 174.071V162.389C266.531 161.758 267.043 161.247 267.674 161.247H292.776C293.407 161.247 293.919 161.758 293.919 162.389V174.071C293.919 174.702 293.407 175.213 292.776 175.213Z" fill="#C4D7F2"/>
<path d="M291.448 173.586H290.476C290.227 173.586 290.025 173.385 290.025 173.137V163.323C290.025 163.075 290.227 162.874 290.476 162.874H291.448C291.696 162.874 291.898 163.075 291.898 163.323V173.137C291.898 173.385 291.696 173.586 291.448 173.586Z" fill="#ECF3FE"/>
<path d="M288.085 173.586H287.112C286.864 173.586 286.662 173.385 286.662 173.137V163.323C286.662 163.075 286.864 162.874 287.112 162.874H288.085C288.333 162.874 288.535 163.075 288.535 163.323V173.137C288.535 173.385 288.333 173.586 288.085 173.586Z" fill="#ECF3FE"/>
<path d="M284.723 173.586H283.751C283.502 173.586 283.301 173.385 283.301 173.137V163.323C283.301 163.075 283.502 162.874 283.751 162.874H284.723C284.972 162.874 285.174 163.075 285.174 163.323V173.137C285.174 173.385 284.972 173.586 284.723 173.586Z" fill="#ECF3FE"/>
<path d="M281.36 173.586H280.388C280.139 173.586 279.938 173.385 279.938 173.137V163.323C279.938 163.075 280.139 162.874 280.388 162.874H281.36C281.609 162.874 281.81 163.075 281.81 163.323V173.137C281.81 173.385 281.609 173.586 281.36 173.586Z" fill="#ECF3FE"/>
<path d="M271.862 164.554H268.393C268.141 164.554 267.936 164.348 267.936 164.097V163.856C267.936 163.605 268.141 163.399 268.393 163.399H271.862C272.114 163.399 272.319 163.605 272.319 163.856V164.097C272.319 164.348 272.114 164.554 271.862 164.554Z" fill="#1DB562"/>
<path d="M292.776 190.969H267.674C267.043 190.969 266.531 190.458 266.531 189.827V178.145C266.531 177.514 267.043 177.003 267.674 177.003H292.776C293.407 177.003 293.919 177.514 293.919 178.145V189.827C293.919 190.458 293.407 190.969 292.776 190.969Z" fill="#C4D7F2"/>
<path d="M291.448 189.342H290.476C290.227 189.342 290.025 189.141 290.025 188.893V179.079C290.025 178.831 290.227 178.63 290.476 178.63H291.448C291.696 178.63 291.898 178.831 291.898 179.079V188.893C291.898 189.141 291.696 189.342 291.448 189.342Z" fill="#ECF3FE"/>
<path d="M288.085 189.342H287.112C286.864 189.342 286.662 189.141 286.662 188.893V179.079C286.662 178.831 286.864 178.63 287.112 178.63H288.085C288.333 178.63 288.535 178.831 288.535 179.079V188.893C288.535 189.141 288.333 189.342 288.085 189.342Z" fill="#ECF3FE"/>
<path d="M284.723 189.342H283.751C283.502 189.342 283.301 189.141 283.301 188.893V179.079C283.301 178.831 283.502 178.63 283.751 178.63H284.723C284.972 178.63 285.174 178.831 285.174 179.079V188.893C285.174 189.141 284.972 189.342 284.723 189.342Z" fill="#ECF3FE"/>
<path d="M281.36 189.342H280.388C280.139 189.342 279.938 189.141 279.938 188.893V179.079C279.938 178.831 280.139 178.63 280.388 178.63H281.36C281.609 178.63 281.81 178.831 281.81 179.079V188.893C281.81 189.141 281.609 189.342 281.36 189.342Z" fill="#ECF3FE"/>
<path d="M271.862 180.31H268.393C268.141 180.31 267.936 180.104 267.936 179.853V179.612C267.936 179.361 268.141 179.155 268.393 179.155H271.862C272.114 179.155 272.319 179.361 272.319 179.612V179.853C272.319 180.104 272.114 180.31 271.862 180.31Z" fill="#1DB562"/>
<path d="M292.776 206.86H267.674C267.043 206.86 266.531 206.349 266.531 205.718V194.036C266.531 193.406 267.043 192.895 267.674 192.895H292.776C293.407 192.895 293.919 193.406 293.919 194.036V205.718C293.919 206.349 293.407 206.86 292.776 206.86Z" fill="#C4D7F2"/>
<path d="M291.448 205.234H290.476C290.227 205.234 290.025 205.033 290.025 204.784V194.971C290.025 194.722 290.227 194.521 290.476 194.521H291.448C291.696 194.521 291.898 194.722 291.898 194.971V204.784C291.898 205.032 291.696 205.234 291.448 205.234Z" fill="#ECF3FE"/>
<path d="M288.085 205.234H287.112C286.864 205.234 286.662 205.033 286.662 204.784V194.971C286.662 194.722 286.864 194.521 287.112 194.521H288.085C288.333 194.521 288.535 194.722 288.535 194.971V204.784C288.535 205.032 288.333 205.234 288.085 205.234Z" fill="#ECF3FE"/>
<path d="M284.723 205.234H283.751C283.502 205.234 283.301 205.033 283.301 204.784V194.971C283.301 194.722 283.502 194.521 283.751 194.521H284.723C284.972 194.521 285.174 194.722 285.174 194.971V204.784C285.174 205.032 284.972 205.234 284.723 205.234Z" fill="#ECF3FE"/>
<path d="M281.36 205.234H280.388C280.139 205.234 279.938 205.033 279.938 204.784V194.971C279.938 194.722 280.139 194.521 280.388 194.521H281.36C281.609 194.521 281.81 194.722 281.81 194.971V204.784C281.81 205.032 281.609 205.234 281.36 205.234Z" fill="#ECF3FE"/>
<path d="M271.862 196.201H268.393C268.141 196.201 267.936 195.996 267.936 195.745V195.504C267.936 195.252 268.141 195.047 268.393 195.047H271.862C272.114 195.047 272.319 195.252 272.319 195.504V195.745C272.319 195.996 272.114 196.201 271.862 196.201Z" fill="#1DB562"/>
<path d="M302.57 175.213H291.834V177.003H302.57V175.213Z" fill="#77A0C9"/>
<path d="M302.57 159.593H291.834V161.247H302.57V159.593Z" fill="#77A0C9"/>
<path d="M302.569 190.969H291.834V192.895H302.569V190.969Z" fill="#77A0C9"/>
<path d="M170.191 196.291H132.243C130.742 196.291 129.521 195.071 129.521 193.573V180.212C129.521 178.713 130.742 177.494 132.243 177.494H170.191C171.691 177.494 172.912 178.713 172.912 180.212V193.573C172.912 195.071 171.691 196.291 170.191 196.291ZM132.243 178.779C131.452 178.779 130.808 179.421 130.808 180.212V193.573C130.808 194.363 131.452 195.006 132.243 195.006H170.191C170.982 195.006 171.626 194.363 171.626 193.573V180.212C171.626 179.421 170.982 178.779 170.191 178.779H132.243Z" fill="white"/>
<path d="M154.863 181.106V184.07H168.967V181.106H154.863Z" fill="white"/>
<path d="M154.863 185.41V188.374H168.967V185.41H154.863Z" fill="white"/>
<path d="M154.863 189.714V192.678H168.967V189.714H154.863Z" fill="white"/>
<path d="M260.04 57.7684H222.092C220.592 57.7684 219.371 56.5492 219.371 55.0505V41.6894C219.371 40.1908 220.592 38.9716 222.092 38.9716H260.04C261.541 38.9716 262.762 40.1908 262.762 41.6894V55.0505C262.762 56.5492 261.541 57.7684 260.04 57.7684ZM222.092 40.2564C221.301 40.2564 220.658 40.8992 220.658 41.6894V55.0505C220.658 55.8408 221.301 56.4836 222.092 56.4836H260.04C260.832 56.4836 261.475 55.8408 261.475 55.0505V41.6894C261.475 40.8992 260.832 40.2564 260.04 40.2564H222.092Z" fill="white"/>
<path d="M244.713 42.5836V45.5472H258.817V42.5836H244.713Z" fill="white"/>
<path d="M244.713 46.8879V49.8515H258.817V46.8879H244.713Z" fill="white"/>
<path d="M244.713 51.1922V54.1558H258.817V51.1922H244.713Z" fill="white"/>
<path d="M294.48 104.077H256.532C255.031 104.077 253.811 102.857 253.811 101.359V87.9976C253.811 86.499 255.031 85.2798 256.532 85.2798H294.48C295.981 85.2798 297.201 86.499 297.201 87.9976V101.359C297.201 102.857 295.981 104.077 294.48 104.077ZM256.532 86.5646C255.741 86.5646 255.097 87.2074 255.097 87.9976V101.359C255.097 102.149 255.741 102.792 256.532 102.792H294.48C295.271 102.792 295.915 102.149 295.915 101.359V87.9976C295.915 87.2074 295.271 86.5646 294.48 86.5646H256.532Z" fill="white"/>
<path d="M279.152 88.8919V91.8554H293.256V88.8919H279.152Z" fill="white"/>
<path d="M279.152 93.1962V96.1597H293.256V93.1962H279.152Z" fill="white"/>
<path d="M279.152 97.5004V100.464H293.256V97.5004H279.152Z" fill="white"/>
<path d="M235.264 76.8857H170.669C168.829 76.8857 167.332 75.3908 167.332 73.5534V30.8611C167.332 29.0237 168.829 27.5288 170.669 27.5288H204.667C205.095 27.5288 205.505 27.3984 205.853 27.1517L213.722 21.5798C214.289 21.1782 214.957 20.9659 215.652 20.9659H235.264C237.104 20.9659 238.6 22.4607 238.6 24.2981V73.5535C238.6 75.3908 237.104 76.8857 235.264 76.8857ZM170.669 28.8136C169.538 28.8136 168.619 29.7321 168.619 30.861V73.5534C168.619 74.6823 169.538 75.6008 170.669 75.6008H235.264C236.394 75.6008 237.314 74.6823 237.314 73.5534V24.298C237.314 23.169 236.394 22.2506 235.264 22.2506H215.652C215.225 22.2506 214.815 22.381 214.466 22.6277L206.597 28.1996C206.03 28.6012 205.363 28.8135 204.668 28.8135H170.669V28.8136Z" fill="white"/>
<path opacity="0.18" d="M244.817 93.4468L240.337 91.2632C239.447 90.8296 238.946 89.8668 239.1 88.8902L240.343 81.041C240.75 78.4715 238.994 76.0589 236.421 75.6525L156.769 63.0707C153.943 62.6244 151.291 64.5501 150.844 67.3718L134.045 173.453C133.598 176.274 135.526 178.924 138.351 179.37L218.004 191.952C220.577 192.358 222.992 190.605 223.399 188.035L233.04 127.157C233.193 126.193 233.951 125.437 234.917 125.286L240.138 124.471C241.883 124.199 243.249 122.827 243.512 121.083L247.042 97.677C247.305 95.933 246.404 94.2202 244.817 93.4468Z" fill="#003889"/>
<path d="M238.88 112.228L241.049 88.6571C241.211 86.9008 240.212 85.243 238.583 84.5625L233.984 82.6414C233.071 82.2599 232.514 81.3275 232.612 80.3437L233.399 72.4358C233.656 69.8471 231.764 67.54 229.172 67.2828L148.924 59.321C146.077 59.0386 143.541 61.1142 143.258 63.957L132.627 170.83C132.345 173.673 134.423 176.207 137.269 176.489L217.517 184.451C220.109 184.708 222.419 182.818 222.677 180.229L228.777 118.897C228.874 117.925 229.587 117.127 230.543 116.92L235.708 115.805C237.434 115.433 238.718 113.984 238.88 112.228Z" fill="white"/>
<path d="M186.006 81.8148L150.886 78.3303C149.84 78.2265 149.075 77.2949 149.179 76.2497L149.515 72.8764C149.619 71.8311 150.552 71.0679 151.598 71.1718L186.719 74.6562C187.765 74.76 188.529 75.6916 188.425 76.7369L188.09 80.1102C187.986 81.1554 187.053 81.9186 186.006 81.8148Z" fill="#ECF3FE"/>
<path d="M175.488 132.339L144.86 129.3C144.337 129.248 143.955 128.782 144.007 128.26L144.198 126.335C144.25 125.812 144.716 125.431 145.239 125.483L175.867 128.522C176.391 128.574 176.772 129.039 176.72 129.561L176.529 131.487C176.477 132.009 176.011 132.39 175.488 132.339Z" fill="#ECF3FE"/>
<path d="M217.796 143.972L155.317 137.774C154.736 137.716 154.313 137.199 154.37 136.62L154.541 134.902C154.599 134.322 155.116 133.899 155.696 133.956L218.176 140.155C218.756 140.213 219.18 140.729 219.122 141.309L218.951 143.027C218.894 143.607 218.377 144.03 217.796 143.972Z" fill="#ECF3FE"/>
<path d="M216.977 151.327L143.585 144.046C142.957 143.983 142.498 143.424 142.56 142.797L142.714 141.252C142.776 140.624 143.336 140.166 143.964 140.229L217.357 147.51C217.985 147.573 218.444 148.132 218.381 148.759L218.228 150.304C218.165 150.932 217.606 151.39 216.977 151.327Z" fill="#ECF3FE"/>
<path d="M216.245 158.691L142.852 151.409C142.224 151.347 141.766 150.788 141.828 150.16L141.982 148.615C142.044 147.988 142.604 147.53 143.232 147.592L216.625 154.874C217.253 154.936 217.711 155.495 217.649 156.122L217.495 157.668C217.433 158.295 216.873 158.753 216.245 158.691Z" fill="#ECF3FE"/>
<path d="M215.513 166.054L142.12 158.773C141.492 158.71 141.033 158.151 141.096 157.524L141.249 155.979C141.312 155.351 141.871 154.893 142.499 154.956L215.892 162.237C216.52 162.3 216.979 162.859 216.917 163.486L216.763 165.031C216.7 165.659 216.141 166.117 215.513 166.054Z" fill="#ECF3FE"/>
<path d="M214.78 173.418L141.387 166.136C140.759 166.074 140.301 165.515 140.363 164.887L140.517 163.342C140.579 162.715 141.139 162.257 141.767 162.319L215.16 169.601C215.788 169.663 216.247 170.222 216.184 170.849L216.03 172.395C215.968 173.022 215.408 173.48 214.78 173.418Z" fill="#ECF3FE"/>
<path d="M207.979 123.583L160.025 118.825C158.564 118.68 157.497 117.38 157.642 115.92L160.372 88.4804C160.517 87.021 161.819 85.9554 163.28 86.1004L211.234 90.8582C212.696 91.0032 213.763 92.3038 213.617 93.7632L210.888 121.203C210.743 122.662 209.441 123.728 207.979 123.583Z" fill="#33DA82"/>
<path opacity="0.18" d="M208.259 94.5428L207.926 70.8748C207.901 69.1113 206.733 67.5679 205.041 67.0629L200.264 65.6371C199.316 65.354 198.664 64.4856 198.657 63.4969L198.604 55.5504C198.586 52.9488 196.46 50.8541 193.856 50.8715L113.215 51.4118C110.355 51.431 108.051 53.7623 108.07 56.6191L108.792 164.016C108.811 166.873 111.145 169.173 114.006 169.154L194.647 168.614C197.251 168.596 199.349 166.473 199.331 163.872L198.917 102.239C198.911 101.262 199.536 100.393 200.464 100.087L205.483 98.4341C207.16 97.8818 208.284 96.3063 208.259 94.5428Z" fill="#003889"/>
<path d="M202.958 89.0836L201.521 65.4569C201.414 63.6965 200.175 62.2091 198.461 61.7833L193.624 60.5813C192.663 60.3426 191.971 59.5054 191.918 58.5182L191.494 50.5826C191.356 47.9848 189.134 45.9912 186.533 46.1298L106.005 50.4205C103.149 50.5727 100.957 53.0086 101.109 55.8614L106.838 163.108C106.99 165.961 109.429 168.15 112.286 167.998L192.814 163.708C195.415 163.569 197.411 161.351 197.273 158.753L193.985 97.2059C193.933 96.2308 194.516 95.3336 195.43 94.9849L200.366 93.1001C202.015 92.4703 203.065 90.8441 202.958 89.0836Z" fill="white"/>
<path d="M142.179 63.4658L111.757 65.0869C111.145 65.1195 110.623 64.6509 110.591 64.0404L110.431 61.0564C110.399 60.4459 110.868 59.9246 111.479 59.892L141.901 58.271C142.513 58.2384 143.035 58.707 143.067 59.3175L143.227 62.3014C143.259 62.912 142.79 63.4332 142.179 63.4658Z" fill="#ECF3FE"/>
<path d="M183.077 72.6765L123.993 75.8246C123.387 75.857 122.87 75.3927 122.838 74.7878L122.677 71.7836C122.645 71.1787 123.11 70.6621 123.716 70.6299L182.8 67.4817C183.406 67.4494 183.923 67.9137 183.955 68.5186L184.116 71.5228C184.148 72.1276 183.683 72.6442 183.077 72.6765Z" fill="#ECF3FE"/>
<path d="M183.583 84.0393L113.058 87.797C112.397 87.8322 111.833 87.3258 111.798 86.666L111.648 83.8608C111.613 83.2009 112.12 82.6374 112.781 82.6022L183.306 78.8444C183.966 78.8092 184.53 79.3156 184.566 79.9755L184.715 82.7807C184.751 83.4405 184.244 84.004 183.583 84.0393Z" fill="#ECF3FE"/>
<path d="M184.188 95.3968L113.664 99.1545C113.003 99.1897 112.439 98.6833 112.404 98.0234L112.254 95.2183C112.218 94.5584 112.725 93.9949 113.386 93.9597L183.911 90.2019C184.572 90.1667 185.136 90.6731 185.171 91.3331L185.321 94.1382C185.356 94.798 184.849 95.3615 184.188 95.3968Z" fill="#ECF3FE"/>
<path d="M184.796 106.754L114.271 110.512C113.61 110.547 113.046 110.041 113.011 109.381L112.861 106.576C112.826 105.916 113.333 105.352 113.994 105.317L184.518 101.559C185.179 101.524 185.743 102.031 185.779 102.691L185.928 105.496C185.964 106.156 185.457 106.719 184.796 106.754Z" fill="#ECF3FE"/>
<path d="M185.403 118.112L114.879 121.869C114.218 121.905 113.654 121.398 113.618 120.738L113.469 117.933C113.433 117.273 113.94 116.71 114.601 116.675L185.126 112.917C185.787 112.882 186.351 113.388 186.386 114.048L186.536 116.853C186.571 117.513 186.064 118.076 185.403 118.112Z" fill="#ECF3FE"/>
<path d="M186.009 129.469L115.484 133.227C114.823 133.262 114.259 132.756 114.224 132.096L114.074 129.291C114.039 128.631 114.546 128.067 115.207 128.032L185.731 124.274C186.392 124.239 186.956 124.746 186.992 125.405L187.141 128.211C187.177 128.871 186.67 129.434 186.009 129.469Z" fill="#ECF3FE"/>
<path d="M186.616 140.827L116.091 144.584C115.431 144.62 114.867 144.113 114.831 143.453L114.681 140.648C114.646 139.988 115.153 139.425 115.814 139.389L186.339 135.632C187 135.597 187.564 136.103 187.599 136.763L187.749 139.568C187.784 140.228 187.277 140.792 186.616 140.827Z" fill="#ECF3FE"/>
<path d="M187.224 152.184L116.699 155.942C116.038 155.977 115.474 155.471 115.439 154.811L115.289 152.006C115.254 151.346 115.761 150.782 116.421 150.747L186.946 146.989C187.607 146.954 188.171 147.461 188.206 148.121L188.356 150.926C188.392 151.586 187.884 152.149 187.224 152.184Z" fill="#ECF3FE"/>
<path d="M156.082 150.105L67.2627 201.71C67.052 201.831 66.7824 201.759 66.6607 201.549L0.309122 86.7711C0.187418 86.5606 0.25963 86.2913 0.470469 86.1698L89.2897 34.5655C91.705 33.1728 94.7934 33.9993 96.1879 36.4115L157.93 143.216C159.325 145.628 158.497 148.713 156.082 150.105Z" fill="#1061B2"/>
<path opacity="0.18" d="M166.523 155.815L154.219 95.4175C154.024 94.4606 154.47 93.4876 155.322 93.0086L159.928 90.4202C161.467 89.5552 162.265 87.7929 161.901 86.0672L157.005 62.9074C156.64 61.1818 155.196 59.8922 153.438 59.7224L148.476 59.243C147.491 59.1478 146.683 58.4212 146.486 57.4525L144.9 49.6652C144.38 47.1159 141.89 45.4697 139.338 45.9884L60.3137 62.0446C57.5108 62.6141 55.7007 65.3452 56.271 68.1446L77.7093 173.388C78.2795 176.188 81.0141 177.995 83.8171 177.426L162.841 161.37C165.394 160.851 167.042 158.364 166.523 155.815Z" fill="#003889"/>
<path d="M160.685 156.263L149.66 159.255L82.8637 177.373C80.1029 178.124 77.2572 176.495 76.5059 173.737L48.3191 70.0947C47.9177 68.6172 48.1982 67.1164 48.9701 65.9267C49.639 64.8937 50.6785 64.0945 51.9599 63.7451L60.5818 61.4066L106.591 48.9258L129.784 42.6352C132.298 41.9543 134.889 43.437 135.571 45.9475L137.657 53.6155C137.917 54.5688 138.769 55.242 139.759 55.2729L144.741 55.4322C146.506 55.4887 148.029 56.6836 148.505 58.3822L154.886 81.1777C155.362 82.8763 154.677 84.6879 153.198 85.649L148.77 88.5296C147.949 89.0615 147.568 90.0611 147.826 91.0042L164.002 150.482C164.684 152.992 163.199 155.583 160.685 156.263Z" fill="white"/>
<path d="M131.98 62.292L61.0409 81.5356C60.1737 81.7708 59.2797 81.2594 59.0441 80.3933L57.6315 75.199C57.396 74.3329 57.908 73.4401 58.7752 73.2048L129.714 53.9613C130.581 53.726 131.475 54.2374 131.711 55.1035L133.124 60.2978C133.359 61.1639 132.847 62.0567 131.98 62.292Z" fill="#33DA82"/>
<path d="M114.561 116.216L73.5899 127.331C72.6738 127.579 71.7294 127.039 71.4806 126.124L61.1074 87.9819C60.8586 87.0669 61.3995 86.1238 62.3156 85.8753L103.287 74.7611C104.203 74.5126 105.147 75.0529 105.396 75.9678L115.769 114.11C116.018 115.025 115.477 115.968 114.561 116.216Z" fill="#ECF3FE"/>
<path d="M107.16 127.879L75.1726 136.556C74.7339 136.675 74.2816 136.417 74.1624 135.978L73.443 133.334C73.3239 132.895 73.5829 132.444 74.0217 132.325L106.009 123.647C106.448 123.528 106.9 123.787 107.019 124.225L107.739 126.87C107.858 127.308 107.599 127.76 107.16 127.879Z" fill="#ECF3FE"/>
<path d="M136.357 76.0139L110.945 82.9076C110.41 83.0527 109.858 82.7372 109.713 82.2028L109.088 79.9064C108.943 79.3719 109.259 78.8211 109.794 78.6759L135.206 71.7823C135.742 71.6371 136.293 71.9526 136.438 72.4871L137.063 74.7835C137.208 75.3178 136.892 75.8688 136.357 76.0139Z" fill="#ECF3FE"/>
<path d="M138.73 84.7418L113.318 91.6355C112.783 91.7806 112.231 91.4651 112.086 90.9307L111.461 88.6342C111.316 88.0998 111.632 87.5489 112.167 87.4038L137.58 80.5101C138.115 80.365 138.666 80.6805 138.812 81.2149L139.436 83.5114C139.581 84.0457 139.265 84.5967 138.73 84.7418Z" fill="#ECF3FE"/>
<path d="M141.103 93.4697L115.691 100.363C115.156 100.509 114.604 100.193 114.459 99.6586L113.834 97.3621C113.689 96.8277 114.005 96.2768 114.54 96.1317L139.953 89.238C140.488 89.0929 141.039 89.4084 141.185 89.9428L141.809 92.2393C141.954 92.7736 141.639 93.3246 141.103 93.4697Z" fill="#ECF3FE"/>
<path d="M143.478 102.198L118.066 109.091C117.531 109.236 116.979 108.921 116.834 108.386L116.209 106.09C116.064 105.556 116.38 105.005 116.915 104.86L142.328 97.9659C142.863 97.8207 143.414 98.1362 143.56 98.6707L144.184 100.967C144.33 101.501 144.014 102.052 143.478 102.198Z" fill="#ECF3FE"/>
<path d="M149.54 125.328L77.821 144.783C77.1693 144.96 76.4975 144.575 76.3205 143.925L75.8106 142.05C75.6336 141.399 76.0185 140.728 76.6702 140.551L148.39 121.096C149.041 120.919 149.713 121.304 149.89 121.954L150.4 123.829C150.577 124.48 150.192 125.151 149.54 125.328Z" fill="#ECF3FE"/>
<path d="M151.808 133.659L80.0886 153.114C79.4369 153.291 78.765 152.907 78.588 152.256L78.0782 150.381C77.9012 149.73 78.286 149.059 78.9377 148.882L150.657 129.427C151.309 129.25 151.981 129.635 152.158 130.286L152.667 132.16C152.845 132.811 152.46 133.482 151.808 133.659Z" fill="#ECF3FE"/>
<path d="M154.074 141.99L82.3542 161.445C81.7025 161.622 81.0307 161.238 80.8537 160.587L80.3438 158.712C80.1668 158.061 80.5517 157.39 81.2034 157.214L152.923 137.758C153.574 137.581 154.246 137.966 154.423 138.617L154.933 140.491C155.11 141.142 154.725 141.813 154.074 141.99Z" fill="#ECF3FE"/>
<path d="M143.328 154.419L97.9226 166.736C97.557 166.835 97.1801 166.62 97.0808 166.255C96.9815 165.889 97.1974 165.513 97.563 165.414L142.968 153.097C143.334 152.998 143.711 153.213 143.81 153.579C143.909 153.944 143.693 154.32 143.328 154.419Z" fill="#ECF3FE"/>
<path opacity="0.18" d="M149.66 159.255L82.8637 177.373C80.1029 178.124 77.2572 176.495 76.5059 173.737L48.3191 70.0947C47.9177 68.6172 48.1982 67.1164 48.9701 65.9267L60.5818 61.4066L106.591 48.9258L110.582 59.1505L113.739 67.2398L117.398 76.6115L119.003 80.723L120.707 85.0863L122.312 89.1952L124.015 93.561L125.618 97.67L127.324 102.036L128.927 106.145L136.067 124.438L137.673 128.547L139.227 132.53L140.83 136.637L142.384 140.617L143.987 144.726L149.66 159.255Z" fill="#003889"/>
<path d="M145.044 167.695L54.8603 207.903C54.638 208.002 54.3774 207.903 54.2781 207.681L0.182917 86.6586C0.0837029 86.4367 0.183444 86.1764 0.405716 86.0773L90.5898 45.8692C93.1364 44.7337 96.1226 45.8752 97.2595 48.4186L147.597 161.034C148.734 163.577 147.591 166.56 145.044 167.695Z" fill="#3B82F4"/>
<path d="M86.9216 100.776L47.9957 118.138C47.0558 118.557 45.9534 118.136 45.5337 117.197L36.3383 96.633C35.9185 95.6942 36.3402 94.5933 37.2801 94.1741L76.2061 76.8126C77.146 76.3933 78.2484 76.8145 78.6681 77.7532L87.8635 98.3176C88.2833 99.2563 87.8617 100.357 86.9216 100.776Z" fill="#F9F8F7"/>
<path d="M41.5932 99.3956C41.4396 99.3956 41.2931 99.3072 41.2264 99.1581C41.136 98.9559 41.2268 98.7188 41.4293 98.6285L76.7552 82.8726C76.9576 82.7822 77.195 82.873 77.2854 83.0752C77.3759 83.2774 77.2851 83.5145 77.0826 83.6048L41.7566 99.3607C41.7035 99.3844 41.6479 99.3956 41.5932 99.3956Z" fill="#192942"/>
<path d="M44.4389 105.754C44.2853 105.754 44.1387 105.666 44.0721 105.517C43.9817 105.315 44.0726 105.077 44.275 104.987L79.6009 89.2312C79.8032 89.1408 80.0407 89.2316 80.1311 89.4338C80.2215 89.6359 80.1308 89.8731 79.9283 89.9634L44.6023 105.719C44.5491 105.743 44.4935 105.754 44.4389 105.754Z" fill="#192942"/>
<path d="M47.2826 112.113C47.129 112.113 46.9825 112.024 46.9159 111.875C46.8254 111.673 46.9162 111.436 47.1187 111.346L82.4447 95.5898C82.6471 95.4995 82.8845 95.5902 82.975 95.7925C83.0654 95.9946 82.9745 96.2318 82.7721 96.3221L47.4461 112.078C47.393 112.102 47.3373 112.113 47.2826 112.113Z" fill="#192942"/>
<path d="M147.222 193.512H142.953V210.609H147.222V193.512Z" fill="#9FB8D6"/>
<path d="M142.952 193.512H113.648V210.609H142.952V193.512Z" fill="white"/>
<path d="M131.649 200.651H124.954C124.262 200.651 123.695 200.085 123.695 199.394C123.695 198.702 124.262 198.137 124.954 198.137H131.649C132.341 198.137 132.907 198.702 132.907 199.394C132.907 200.085 132.341 200.651 131.649 200.651Z" fill="#36588E"/>
<path d="M142.953 188.642H112.621V194.738H142.953V188.642Z" fill="#F4B545"/>
<path d="M148.167 188.642H142.953V194.738H148.167V188.642Z" fill="#E59D29"/>
<path opacity="0.5" d="M113.648 194.738L142.952 197.679V194.738H113.648Z" fill="#9FB8D6"/>
<path d="M133.918 202.331H122.682V207.83H133.918V202.331Z" fill="#C4D7F2"/>
<path d="M131.804 184.612H114.613V188.697H131.804V184.612Z" fill="#D7E3F4"/>
<path d="M141.744 185.338V187.97H142.297V188.697H131.805V184.612H142.297V185.338H141.744Z" fill="#87A7C6"/>
<path d="M141.744 185.338H132.615V187.97H141.744V185.338Z" fill="#D7E3F4"/>
<path d="M141.744 185.338H132.615V185.993H141.744V185.338Z" fill="#9FB8D6"/>
<path d="M124.356 185.53H115.859V187.779H124.356V185.53Z" fill="white"/>
<path d="M126.105 185.53H125.082V187.779H126.105V185.53Z" fill="white"/>
<path d="M128.351 187.779C128.973 187.779 129.477 187.276 129.477 186.654C129.477 186.033 128.973 185.53 128.351 185.53C127.729 185.53 127.225 186.033 127.225 186.654C127.225 187.276 127.729 187.779 128.351 187.779Z" fill="white"/>
<path d="M128.351 187.387C128.756 187.387 129.084 187.059 129.084 186.654C129.084 186.25 128.756 185.922 128.351 185.922C127.946 185.922 127.617 186.25 127.617 186.654C127.617 187.059 127.946 187.387 128.351 187.387Z" fill="#87A7C6"/>
<path d="M135.653 167.927H112.158V175.166H135.653H140.784V167.927H135.653Z" fill="white"/>
<path d="M136.509 175.166H113.014V180.554H136.509H141.822V175.166H136.509Z" fill="white"/>
<path d="M135.653 167.927V175.166H123.213L136.426 177.342V180.554H141.821V175.166H140.783V167.927H135.653Z" fill="#9FB8D6"/>
<path d="M132.652 180.554H115.576V184.612H132.652V180.554Z" fill="#33DA82"/>
<path d="M142.525 181.276V183.89H143.074V184.612H132.652V180.554H143.074V181.276H142.525Z" fill="#1DB562"/>
<path d="M142.525 181.276H133.457V183.89H142.525V181.276Z" fill="#D7E3F4"/>
<path d="M142.525 181.276H133.457V181.926H142.525V181.276Z" fill="#9FB8D6"/>
<path d="M125.252 181.466H116.812V183.7H125.252V181.466Z" fill="white"/>
<path d="M126.994 181.466H125.979V183.7H126.994V181.466Z" fill="white"/>
<path d="M130.308 182.859C130.45 182.258 130.077 181.656 129.476 181.515C128.875 181.373 128.272 181.745 128.13 182.345C127.988 182.946 128.361 183.548 128.962 183.689C129.563 183.831 130.166 183.459 130.308 182.859Z" fill="white"/>
<path d="M129.223 183.311C129.625 183.311 129.951 182.985 129.951 182.583C129.951 182.181 129.625 181.855 129.223 181.855C128.82 181.855 128.494 182.181 128.494 182.583C128.494 182.985 128.82 183.311 129.223 183.311Z" fill="#33DA82"/>
<path d="M112.619 188.642L142.951 190.883V188.642H112.619Z" fill="#E59D29"/>
<path d="M301.281 122.668L292.717 119.668L288.383 132.007L296.946 135.008L301.281 122.668Z" fill="#33DA82"/>
<path d="M288.879 120.531L282.98 128.767L293.631 136.376L299.53 128.14L288.879 120.531Z" fill="#C4D7F2"/>
<path d="M300.05 128.018L293.633 121.608L284.374 130.855L290.791 137.265L300.05 128.018Z" fill="#F9F9F9"/>
<path d="M299.75 145.703H285.128L282.287 126.224H302.591L299.75 145.703Z" fill="white"/>
<path d="M296.273 133.436L288.487 133.457C288.062 133.458 287.725 133.815 287.747 134.238L288.145 141.888C288.166 142.284 288.493 142.593 288.889 142.592L295.922 142.573C296.318 142.572 296.644 142.26 296.663 141.865L297.018 134.213C297.038 133.789 296.699 133.435 296.273 133.436ZM289.94 141.091C289.61 141.092 289.339 140.823 289.338 140.494L289.325 135.552C289.323 135.222 289.593 134.952 289.922 134.951C289.923 134.951 289.923 134.951 289.924 134.951C290.253 134.951 290.523 135.22 290.524 135.548L290.538 140.49C290.539 140.82 290.27 141.09 289.94 141.091ZM292.245 141.085C291.915 141.086 291.644 140.817 291.643 140.488L291.63 135.545C291.629 135.216 291.898 134.945 292.228 134.944C292.229 134.944 292.229 134.944 292.23 134.944C292.559 134.944 292.829 135.213 292.83 135.542L292.843 140.485C292.844 140.813 292.575 141.084 292.245 141.085ZM294.551 141.079C294.221 141.08 293.95 140.811 293.95 140.481L293.935 135.539C293.935 135.209 294.204 134.939 294.534 134.938C294.535 134.938 294.535 134.938 294.535 134.938C294.865 134.938 295.135 135.206 295.135 135.535L295.149 140.478C295.15 140.808 294.88 141.078 294.551 141.079Z" fill="#C4D7F2"/>
<path d="M296.396 131.313L295.412 131.113L295.245 130.451C295.209 130.309 295.094 130.199 294.948 130.169L290.89 129.343C290.744 129.314 290.596 129.37 290.506 129.488L290.094 130.032L289.11 129.831C288.615 129.73 288.127 130.053 288.026 130.547C287.925 131.041 288.248 131.529 288.743 131.629L296.029 133.111C296.524 133.212 297.012 132.89 297.112 132.396C297.213 131.901 296.891 131.414 296.396 131.313ZM294.281 130.896C294.257 131.014 294.153 131.096 294.037 131.096C294.02 131.096 294.003 131.094 293.986 131.091L291.415 130.567C291.28 130.541 291.192 130.408 291.22 130.274C291.243 130.155 291.348 130.073 291.464 130.073C291.481 130.073 291.497 130.075 291.514 130.078L294.086 130.602C294.221 130.629 294.308 130.762 294.281 130.896Z" fill="#C4D7F2"/>
<path d="M136.635 22.013C140.113 18.54 140.113 12.9092 136.635 9.43622C133.158 5.96323 127.52 5.96324 124.043 9.43623C120.565 12.9092 120.565 18.54 124.043 22.013C127.52 25.486 133.158 25.486 136.635 22.013Z" fill="#F4B545"/>
<path d="M330.399 174.605C333.414 174.605 335.857 172.165 335.857 169.154C335.857 166.144 333.414 163.703 330.399 163.703C327.385 163.703 324.941 166.144 324.941 169.154C324.941 172.165 327.385 174.605 330.399 174.605Z" fill="#C4D7F2"/>
<path d="M29.6178 50.2176C30.3325 47.2928 28.5379 44.3432 25.6094 43.6294C22.681 42.9156 19.7276 44.7079 19.0129 47.6327C18.2981 50.5574 20.0927 53.5071 23.0212 54.2209C25.9497 54.9347 28.9031 53.1423 29.6178 50.2176Z" fill="#C4D7F2"/>
</svg>
